<svg xmlns="http://www.w3.org/2000/svg" xmlns:xlink="http://www.w3.org/1999/xlink" width="52.875" height="52.875" viewBox="0 0 52.875 52.875">
  <defs>
    <style>
      .cls-1 {
        fill: url(#linear-gradient);
      }

      .cls-2 {
        filter: url(#Icon_awesome-arrow-alt-circle-left);
      }
    </style>
    <linearGradient id="linear-gradient" x1="0.5" x2="0.5" y2="1" gradientUnits="objectBoundingBox">
      <stop offset="0" stop-color="#fb8777"/>
      <stop offset="1" stop-color="#ef1846"/>
      <stop offset="1" stop-color="#545454"/>
    </linearGradient>
    <filter id="Icon_awesome-arrow-alt-circle-left" x="0" y="0" width="52.875" height="52.875" filterUnits="userSpaceOnUse">
      <feOffset dy="3" input="SourceAlpha"/>
      <feGaussianBlur stdDeviation="3" result="blur"/>
      <feFlood flood-opacity="0.22"/>
      <feComposite operator="in" in2="blur"/>
      <feComposite in="SourceGraphic"/>
    </filter>
  </defs>
  <g class="cls-2" transform="matrix(1, 0, 0, 1, 0, 0)">
    <path id="Icon_awesome-arrow-alt-circle-left-2" data-name="Icon awesome-arrow-alt-circle-left" class="cls-1" d="M18,35.438A17.438,17.438,0,1,1,35.438,18,17.434,17.434,0,0,1,18,35.438Zm8.156-20.531H18V9.921a.844.844,0,0,0-1.441-.6L8.522,17.4a.836.836,0,0,0,0,1.188l8.037,8.079a.844.844,0,0,0,1.441-.6V21.094h8.156A.846.846,0,0,0,27,20.25v-4.5A.846.846,0,0,0,26.156,14.906Z" transform="translate(8.44 5.44)"/>
  </g>
</svg>
